<?xml version="1.0" standalone="no"?>
<!DOCTYPE svg PUBLIC "-//W3C//DTD SVG 20010904//EN"
 "http://www.w3.org/TR/2001/REC-SVG-20010904/DTD/svg10.dtd">
<svg version="1.0" xmlns="http://www.w3.org/2000/svg"
 width="260.000000pt" height="260.000000pt" viewBox="0 0 260.000000 260.000000"
 preserveAspectRatio="xMidYMid meet">
<metadata>
Created by potrace 1.11, written by Peter Selinger 2001-2013
</metadata>
<g transform="translate(0.000000,260.000000) scale(0.100000,-0.100000)"
fill="#000000" stroke="none">
<path d="M1198 2335 c-2 -2 -19 -6 -38 -9 -78 -12 -193 -61 -280 -119 -71 -47
-184 -171 -220 -242 -18 -35 -35 -67 -39 -70 -3 -4 -6 -10 -7 -13 0 -4 -11
-41 -24 -82 -26 -85 -35 -227 -19 -325 24 -143 95 -287 196 -391 53 -55 77
-75 138 -118 19 -14 20 -26 20 -328 l0 -313 53 -26 c29 -14 58 -26 65 -26 7
-1 37 -5 67 -9 66 -11 305 -12 375 -2 64 9 145 33 170 52 19 14 20 28 21 318
1 167 2 308 3 314 0 6 20 24 43 39 58 38 146 131 193 200 242 365 113 866
-274 1068 -112 59 -191 79 -323 82 -64 1 -118 1 -120 0z m202 -109 c145 -22
295 -110 393 -232 202 -251 184 -612 -42 -844 -60 -61 -166 -134 -181 -125 -3
2 -5 67 -5 145 0 78 -2 143 -6 146 -11 6 -39 -7 -39 -18 0 -14 -30 -42 -37
-34 -3 3 0 12 6 20 7 8 15 35 17 60 5 42 4 46 -21 52 -19 5 -32 1 -51 -17 -13
-12 -24 -18 -24 -11 0 6 -7 18 -16 26 -14 15 -18 15 -45 -1 -16 -10 -40 -31
-52 -47 -12 -17 -34 -44 -49 -61 l-27 -30 -1 39 c0 41 -29 137 -44 148 -9 6
-44 -38 -72 -95 -9 -17 -28 -44 -42 -60 -25 -26 -26 -33 -27 -145 -1 -131 1
-128 -74 -84 -74 43 -171 149 -219 239 -193 367 4 815 404 917 87 22 163 26
254 12z m-224 -887 c13 -59 8 -79 -20 -79 -36 0 -42 32 -14 74 25 38 26 39 34
5z m180 -29 c-9 -22 -13 -40 -9 -40 4 0 2 -5 -5 -12 -17 -17 -15 -48 4 -48 8
0 22 17 31 38 16 38 93 121 93 99 -1 -7 -9 -28 -19 -46 -15 -28 -16 -41 -8
-64 9 -26 13 -28 41 -23 17 4 33 11 34 16 11 32 17 -4 17 -106 0 -122 -3 -129
-53 -139 -10 -2 -17 -4 -17 -5 0 -2 -22 -6 -77 -15 -69 -11 -196 -2 -263 18
-59 18 -55 9 -55 137 0 117 7 143 29 116 17 -20 68 -27 111 -16 39 11 64 31
119 99 18 23 35 40 38 37 3 -3 -2 -23 -11 -46z m-241 -432 c93 -27 322 -29
363 -4 4 2 30 11 58 19 l52 15 0 -69 c0 -79 2 -77 -99 -59 -99 17 -114 20
-159 26 -25 3 -52 7 -60 9 -16 5 -69 14 -110 20 -142 21 -147 22 -153 44 -6
25 2 34 22 25 9 -4 48 -15 86 -26z m-10 -112 c17 -3 109 -19 206 -35 97 -17
196 -33 220 -36 53 -7 62 -14 57 -51 -2 -20 -8 -28 -18 -26 -16 4 -28 6 -105
18 -27 4 -56 8 -63 10 -8 1 -46 8 -85 14 -109 18 -120 19 -142 24 -21 4 -66
11 -125 21 -40 7 -49 17 -42 52 4 22 8 24 36 19 17 -3 45 -8 61 -10z m-20
-145 c22 -5 58 -12 80 -15 22 -3 51 -8 65 -11 14 -3 45 -8 70 -11 25 -3 63
-10 85 -14 22 -5 60 -12 85 -15 103 -14 115 -19 118 -48 3 -25 -5 -32 -31 -28
-4 1 -24 4 -45 7 -20 3 -75 12 -122 20 -47 8 -98 17 -115 19 -43 6 -107 17
-130 22 -11 2 -40 6 -65 10 -61 7 -77 18 -74 45 1 13 3 24 3 26 2 4 37 1 76
-7z m20 -146 c28 -4 59 -9 70 -12 20 -4 53 -10 103 -17 38 -6 89 -15 147 -26
28 -5 68 -12 90 -15 22 -4 47 -8 55 -9 25 -5 17 -29 -12 -37 -28 -7 -116 -5
-154 4 -26 7 -87 17 -134 22 -19 3 -55 9 -80 15 -67 14 -113 22 -134 21 -32 0
-53 17 -50 41 1 13 3 24 3 25 1 1 18 -1 96 -12z"/>
</g>
</svg>
